<?xml version="1.0" encoding="UTF-8"?>
<svg id="Ebene_1" data-name="Ebene 1" xmlns="http://www.w3.org/2000/svg" viewBox="0 0 1015.83 1016.77">
  <defs>
    <style>
      .cls-1 {
        fill: #dcff4a;
      }
    </style>
  </defs>
  <path class="cls-1" d="M792.31.76c23.67,1.32,51.62,8.55,67.07,17.26,11.34,6.41,24,16.27,24,18.57,0,.82-4.93,3.95-11.18,6.9-24,11.51-53.09,37.64-61.97,55.89-4.11,8.05-4.77,11.51-4.77,22.68.16,11.84.82,14.47,6.41,26.3,5.92,12.33,8.88,15.62,43.56,50.14,22.03,21.7,44.38,45.86,54.41,58.35,55.72,69.86,90.74,147.28,102.9,228.49,4.11,27.12,4.11,90.24,0,118.35-15.12,106.02-60.49,196.6-135.78,272.05-52.93,53.26-116.71,92.38-188.21,115.72-63.94,20.71-130.35,28.27-189.86,21.37-38.63-4.44-61.97-10.36-95.18-24.49-33.7-14.3-44.05-14.14-69.53,1.15-16.77,10.19-37.97,18.9-55.07,22.68-40.6,9.21-92.38,4.27-130.52-12.16-15.12-6.58-40.11-22.36-38.14-24,.66-.49,4.27-1.97,7.89-3.12,14.14-4.6,40.44-19.07,63.29-34.68,26.63-18.41,46.68-29.92,58.68-34.03l7.89-2.79-6.58-2.47c-30.41-11.51-71.67-36.66-97.81-59.67-72-63.45-114.24-166.68-111.45-273.36l.49-19.73,8.22,11.51c10.52,14.79,40.77,46.03,57.53,59.51,28.11,22.36,60.16,41.92,106.02,64.27,47.34,23.01,72.66,39.94,96.98,64.27,22.36,22.52,40.6,51.94,53.42,86.46,7.73,20.88,18.74,43.07,26.3,53.59,12.99,17.59,38.96,36.82,63.12,46.52,22.36,9.04,58.35,15.78,84.49,15.78,45.04,0,90.08-11.67,136.76-35.34,39.78-20.22,61.64-35.51,90.9-63.94,28.77-28.11,47.18-54.57,59.34-84.98,7.23-18.74,10.36-35.51,10.36-59.01,0-24.99-2.79-38.3-12.16-57.53-5.75-11.51-9.7-16.77-22.36-29.42l-15.62-15.45-3.45,4.77c-9.04,12.33-36,45.53-45.53,55.56-28.11,30.08-55.4,42.08-95.67,42.08-9.21,0-20.71.49-25.48,1.15-8.71.99-8.88,1.15-12.49,9.37-4.93,10.85-15.94,21.04-28.27,25.64-24.82,9.37-52.27-1.81-64.93-26.3-5.42-10.19-5.59-31.73-.49-42.9,4.93-10.52,14.47-20.55,24.33-25.81,7.23-3.78,10.36-4.44,23.18-4.44s15.94.66,23.01,4.44c9.53,4.93,21.53,17.26,23.18,23.34.99,4.11,1.32,4.27,15.29,4.27,7.73,0,21.53-.82,30.57-1.64,14.3-1.32,18.25-2.47,29.92-8.38,7.4-3.62,17.92-10.85,23.51-15.78,9.7-8.71,53.59-59.34,52.44-60.33-2.3-1.81-29.42-7.73-39.62-8.55-16.77-1.48-29.1,1.15-52.27,10.85-25.97,10.85-39.94,14.63-58.68,16.27-25.81,1.97-67.89-.82-95.67-6.58l-15.29-3.12-7.23,6.41c-9.7,8.55-22.19,12.33-37.48,11.34-19.23-1.32-34.85-11.84-43.07-28.93-3.78-7.73-4.6-11.67-4.6-22.68s.66-14.63,4.77-22.68c9.04-18.08,23.84-27.45,44.38-28.6,10.68-.49,14.96,0,22.52,2.96,17.59,6.58,30.08,23.01,32.05,42.25l.99,8.55,8.38,1.81c17.1,3.78,46.85,6.74,67.56,6.9,24.49.16,34.68-1.97,66.08-14.47,30.57-12.16,42.08-14.47,66.24-13.31,31.73,1.32,61.97,11.51,89.75,29.92,56.22,37.48,79.72,100.44,65.59,174.9-4.93,25.81-19.56,63.78-34.36,88.93-3.29,5.75-5.75,10.52-5.42,10.85,1.32,1.32,18.25-17.75,31.23-35.18,25.31-33.86,45.7-80.38,53.26-121.15,4.6-25.31,4.11-80.87-.99-104.38-7.56-35.51-21.86-64.27-42.08-84.49-13.48-13.48-26.47-21.04-44.55-25.64-24.99-6.41-49.31-3.78-86.96,9.37-35.67,12.49-50.63,16.6-67.4,18.74-22.52,2.79-46.68,1.15-70.03-4.93-44.71-11.51-68.05-23.84-132.98-69.86-35.67-25.15-65.59-39.12-100.27-46.52-10.52-2.3-21.2-2.96-43.56-2.96-32.38,0-44.22,1.48-101.09,12.49-75.78,14.63-138.57,24.49-156.49,24.49q-6.74,0-3.78,3.29c4.6,5.1,27.78,19.56,41.75,25.97,27.45,12.66,63.78,23.84,117.7,36.49,65.59,15.29,83.5,21.04,99.94,31.89,16.77,11.18,26.3,26.3,35.67,56.88,5.75,18.9,16.77,47.01,24.49,62.14,13.97,27.62,37.31,56.05,61.97,75.29,17.26,13.48,18.9,17.59,11.34,26.63-4.77,5.59-10.68,7.23-17.92,4.77-14.14-4.77-42.9-29.75-60.98-52.93-20.71-26.63-33.04-50.79-48.49-95.5-10.03-28.93-14.79-38.14-23.84-46.52-10.19-9.37-26.79-15.29-77.26-27.12-72.16-17.1-105.2-27.78-141.86-45.7-33.86-16.44-60.49-39.45-71.34-61.64-5.26-11.01-5.42-11.67-5.42-32.55.16-19.73.49-22.68,5.59-37.64,16.11-48.33,52.44-107.67,94.19-153.86,62.63-69.2,159.12-118.85,265.97-137.09,73.64-12.49,126.08-13.64,192.16-4.11,13.15,1.97,27.12,3.12,31.23,2.79,4.27-.49,14.79-4.27,24-8.71,56.38-26.63,94.68-38.3,138.41-41.92,18.74-1.48,23.18-1.64,40.77-.49ZM311.34,202.45c-26.96,4.44-56.88,16.77-79.72,33.2-29.75,21.2-58.19,57.2-58.19,73.64,0,10.52,12.33,20.71,25.31,20.71,9.86,0,10.36-.66,8.55-11.51-1.32-8.22-1.15-10.68,1.48-16.44,4.77-10.52,12.16-15.29,24.82-16.11,8.88-.66,11.51-.16,17.59,3.45,6.9,4.11,10.03,8.55,14.96,21.2,4.11,10.52,9.04,12,40.44,12,19.89,0,30.74-.82,40.77-2.96,52.27-11.51,91.4-39.78,91.4-66.08,0-35.83-63.78-61.48-127.39-51.12ZM681.02,302.88c-19.56,3.45-34.19,8.22-52.77,17.42-18.74,9.21-29.1,16.44-43.72,30.25-11.01,10.36-25.81,28.44-24.33,29.75.33.49,10.03-2.96,21.37-7.4,21.53-8.55,48.99-16.44,70.19-20.05,18.57-3.29,60.33-2.79,77.26.66,82.52,17.42,145.48,71.18,190.68,163.06,11.51,23.34,26.3,62.3,26.3,69.7,0,1.48.82,3.78,1.81,5.1,2.14,3.12.82-51.94-1.64-67.4-13.15-79.23-48.49-139.07-108.65-183.61-23.84-17.59-57.53-32.38-85.81-37.48-16.44-2.96-53.59-2.96-70.68,0ZM436.92,542.22c-15.62,5.92-19.56,26.14-6.9,36.66,12.82,10.85,34.36.16,34.36-17.1,0-9.86-5.42-16.44-16.27-19.89q-5.92-1.64-11.18.33ZM534.07,677.34c-4.77,4.27-6.08,6.9-6.58,12.66-.99,8.88,1.48,14.14,9.04,19.23,6.74,4.6,11.51,4.77,19.56.66,7.23-3.62,10.19-9.04,10.19-18.41,0-8.38-2.14-12.33-8.71-16.27-8.22-5.1-16.6-4.27-23.51,2.14Z"/>
</svg>